<?xml version="1.0" encoding="UTF-8" standalone="no"?>
<svg
   xmlns:dc="http://purl.org/dc/elements/1.1/"
   xmlns:cc="http://creativecommons.org/ns#"
   xmlns:rdf="http://www.w3.org/1999/02/22-rdf-syntax-ns#"
   xmlns:svg="http://www.w3.org/2000/svg"
   xmlns="http://www.w3.org/2000/svg"
   xmlns:sodipodi="http://sodipodi.sourceforge.net/DTD/sodipodi-0.dtd"
   xmlns:inkscape="http://www.inkscape.org/namespaces/inkscape"
   viewBox="0 0 512 512"
   version="1.1"
   id="svg13"
   sodipodi:docname="password.svg"
   inkscape:version="0.92.3 (2405546, 2018-03-11)">
  <metadata
     id="metadata19">
    <rdf:RDF>
      <cc:Work
         rdf:about="">
        <dc:format>image/svg+xml</dc:format>
        <dc:type
           rdf:resource="http://purl.org/dc/dcmitype/StillImage" />
      </cc:Work>
    </rdf:RDF>
  </metadata>
  <defs
     id="defs17" />
  <sodipodi:namedview
     pagecolor="#ffffff"
     bordercolor="#666666"
     borderopacity="1"
     objecttolerance="10"
     gridtolerance="10"
     guidetolerance="10"
     inkscape:pageopacity="0"
     inkscape:pageshadow="2"
     inkscape:window-width="1060"
     inkscape:window-height="544"
     id="namedview15"
     showgrid="false"
     inkscape:zoom="0.04"
     inkscape:cx="-6375.4851"
     inkscape:cy="4360.1185"
     inkscape:window-x="0"
     inkscape:window-y="28"
     inkscape:window-maximized="0"
     inkscape:current-layer="svg13" />
  <title
     id="title2" />
  <g
     data-name="1"
     id="_1"
     style="fill:#b3b3b3"
     inkscape:export-xdpi="100"
     inkscape:export-ydpi="100">
    <path
       d="M380,450H143a15,15,0,0,1-15-15V213.66a15,15,0,0,1,15-15H380a15,15,0,0,1,15,15V435A15,15,0,0,1,380,450ZM158,420H365V228.66H158Z"
       id="path4"
       style="fill:#b3b3b3" />
    <path
       d="M351.66,228.66H171.41a15,15,0,0,1-15-15V153.12a105.13,105.13,0,0,1,210.25,0v60.54A15,15,0,0,1,351.66,228.66Zm-165.25-30H336.66V153.12a75.13,75.13,0,0,0-150.25,0Z"
       id="path6"
       style="fill:#b3b3b3" />
    <path
       d="M261.54,352.67a46.5,46.5,0,1,1,46.5-46.5A46.55,46.55,0,0,1,261.54,352.67Zm0-63a16.5,16.5,0,1,0,16.5,16.5A16.52,16.52,0,0,0,261.54,289.67Z"
       id="path8"
       style="fill:#b3b3b3" />
    <path
       d="M261.54,389a15,15,0,0,1-15-15V337.67a15,15,0,1,1,30,0V374A15,15,0,0,1,261.54,389Z"
       id="path10"
       style="fill:#b3b3b3" />
  </g>
</svg>
